<svg xmlns="http://www.w3.org/2000/svg" viewBox="0 0 1440 960" role="img" aria-labelledby="title desc">
  <title id="title">DEPLOYX operations console product preview</title>
  <desc id="desc">A field-operations console showing an ACME production graph, deployment blockers, and an incident workspace.</desc>
  <style>
    .ink { fill: #17211f; }
    .muted { fill: #56635d; }
    .accent { fill: #a13e1b; }
    .panel { fill: #fcfbf7; stroke: #7d8a82; stroke-width: 1.5; }
    .soft { fill: #f6f5f0; stroke: #c2cbc2; stroke-width: 1.5; }
    .rule { stroke: #c2cbc2; stroke-width: 1.5; }
    .label { font: 600 13px Aptos, Segoe UI, sans-serif; fill: #56635d; }
    .small { font: 12px SFMono-Regular, Cascadia Code, monospace; fill: #56635d; }
    .body { font: 14px Aptos, Segoe UI, sans-serif; fill: #56635d; }
    .title { font: 700 29px Georgia, serif; fill: #17211f; }
    .heading { font: 700 17px Aptos, Segoe UI, sans-serif; fill: #17211f; }
  </style>
  <rect width="1440" height="960" fill="#eceee8"/>
  <rect x="20" y="20" width="1400" height="920" rx="18" class="panel"/>
  <path d="M260 20V940" class="rule"/>
  <rect x="20" y="20" width="240" height="920" rx="18" fill="#f6f5f0"/>
  <path d="M260 90H1420" class="rule"/>
  <rect x="40" y="42" width="38" height="38" rx="7" class="ink"/>
  <text x="59" y="66" text-anchor="middle" font-family="Aptos, sans-serif" font-size="12" font-weight="800" fill="#ffffff">D/X</text>
  <text x="94" y="59" class="heading">DEPLOYX</text>
  <text x="94" y="77" class="label">Deployment operations</text>
  <text x="48" y="125" class="label">OPERATE</text>
  <rect x="40" y="140" width="200" height="38" rx="7" fill="#17211f"/>
  <rect x="52" y="150" width="18" height="18" rx="4" fill="#a13e1b"/>
  <text x="82" y="164" font-family="Aptos, sans-serif" font-size="13" font-weight="700" fill="#ffffff">Overview</text>
  <text x="48" y="215" class="label">Environment graph</text>
  <text x="48" y="247" class="label">Incidents</text>
  <text x="48" y="279" class="label">Deployments</text>
  <text x="48" y="329" class="label">BUILD</text>
  <text x="48" y="361" class="label">Data mapping</text>
  <text x="48" y="393" class="label">API discovery</text>
  <text x="48" y="425" class="label">Integration studio</text>
  <text x="48" y="457" class="label">ACME-LAB</text>
  <text x="48" y="507" class="label">REUSE</text>
  <text x="48" y="539" class="label">Customer playbooks</text>
  <text x="48" y="571" class="label">Deployment memory</text>
  <path d="M40 860H240" class="rule"/>
  <text x="48" y="889" class="heading">FDE workspace</text>
  <text x="48" y="912" class="label">ACME / Production</text>
  <text x="300" y="57" font-family="Aptos, sans-serif" font-size="15" font-weight="700" class="ink">ACME / Production</text>
  <text x="300" y="76" class="label">Forward deployment workspace</text>
  <rect x="1190" y="35" width="190" height="38" rx="7" class="soft"/>
  <text x="1208" y="59" class="body">Search</text>
  <text x="1330" y="59" class="small">⌘K</text>
  <text x="300" y="128" class="label">OPERATIONAL BRIEF / ACME PRODUCTION</text>
  <text x="300" y="166" class="title">Production has three deployment blockers.</text>
  <text x="300" y="193" class="body">Resolve failed preflight checks before promotion.</text>
  <rect x="300" y="222" width="720" height="280" rx="12" class="panel"/>
  <text x="324" y="254" class="heading">Discovered estate</text>
  <text x="324" y="276" class="label">Simulation snapshot from connected evidence</text>
  <rect x="324" y="296" width="120" height="70" rx="8" class="soft"/>
  <text x="340" y="321" class="label">Compute</text><text x="340" y="350" class="heading">27</text>
  <rect x="456" y="296" width="120" height="70" rx="8" class="soft"/>
  <text x="472" y="321" class="label">Databases</text><text x="472" y="350" class="heading">11</text>
  <rect x="588" y="296" width="120" height="70" rx="8" class="soft"/>
  <text x="604" y="321" class="label">Services</text><text x="604" y="350" class="heading">43</text>
  <rect x="720" y="296" width="120" height="70" rx="8" class="soft"/>
  <text x="736" y="321" class="label">APIs</text><text x="736" y="350" class="heading">18</text>
  <rect x="852" y="296" width="144" height="70" rx="8" fill="#f3dfda" stroke="#a33b2c" stroke-width="1.5"/>
  <text x="868" y="321" class="label">Blocked route</text><text x="868" y="350" class="heading">1</text>
  <path d="M350 456C430 408 504 408 584 456" fill="none" stroke="#7d8a82" stroke-width="2"/>
  <path d="M584 456C664 504 738 504 818 456" fill="none" stroke="#a86e10" stroke-width="2"/>
  <path d="M818 456C898 408 972 408 1052 456" fill="none" stroke="#7d8a82" stroke-width="2"/>
  <rect x="440" y="430" width="128" height="42" rx="7" class="soft"/>
  <text x="504" y="456" text-anchor="middle" class="heading">Customer DB</text>
  <rect x="600" y="430" width="128" height="42" rx="7" class="soft"/>
  <text x="664" y="456" text-anchor="middle" class="heading">Order service</text>
  <rect x="760" y="430" width="128" height="42" rx="7" fill="#f4e8cd" stroke="#a86e10" stroke-width="1.5"/>
  <text x="824" y="456" text-anchor="middle" class="heading">Salesforce</text>
  <text x="324" y="486" class="label">Dependency graph / customer data blast radius</text>
  <rect x="1040" y="222" width="340" height="280" rx="12" fill="#fcfbf7" stroke="#7d8a82" stroke-width="1.5"/>
  <text x="1064" y="254" class="label">NEXT DECISION</text>
  <text x="1064" y="284" class="heading">Production promotion is blocked</text>
  <text x="1064" y="311" class="body">3 failed checks need a recorded decision.</text>
  <path d="M1064 332H1356" class="rule"/>
  <circle cx="1080" cy="362" r="5" fill="#a33b2c"/>
  <text x="1096" y="367" class="body">Snowflake egress policy</text>
  <circle cx="1080" cy="398" r="5" fill="#a33b2c"/>
  <text x="1096" y="403" class="body">Warehouse write permission</text>
  <circle cx="1080" cy="434" r="5" fill="#a33b2c"/>
  <text x="1096" y="439" class="body">Timestamp encoding</text>
  <rect x="1064" y="458" width="292" height="30" rx="6" fill="#17211f"/>
  <text x="1210" y="478" text-anchor="middle" font-family="Aptos, sans-serif" font-size="12" font-weight="700" fill="#ffffff">Open remediation plan</text>
  <rect x="300" y="530" width="720" height="270" rx="12" class="panel"/>
  <text x="324" y="563" class="label">ACTIVE INCIDENT / DX-1842</text>
  <text x="324" y="593" class="heading">Salesforce customer sync degradation</text>
  <text x="324" y="619" class="body">Probable cause: rate limit exceeded at 93% confidence.</text>
  <path d="M324 650H996" class="rule"/>
  <circle cx="342" cy="686" r="7" fill="#a86e10"/>
  <text x="364" y="691" class="body">429 responses +812%</text>
  <circle cx="600" cy="686" r="7" fill="#a86e10"/>
  <text x="622" y="691" class="body">Request volume +317%</text>
  <circle cx="342" cy="730" r="7" fill="#a13e1b"/>
  <text x="364" y="735" class="body">3 services affected</text>
  <circle cx="600" cy="730" r="7" fill="#a13e1b"/>
  <text x="622" y="735" class="body">2 workflows affected</text>
  <rect x="1040" y="530" width="340" height="270" rx="12" class="panel"/>
  <text x="1064" y="563" class="label">RELEASE PROGRESSION</text>
  <path d="M1080 626H1340" stroke="#a13e1b" stroke-width="3"/>
  <circle cx="1080" cy="626" r="12" fill="#a13e1b"/><text x="1080" y="631" text-anchor="middle" font-family="Aptos" font-size="10" font-weight="800" fill="#ffffff">01</text>
  <circle cx="1160" cy="626" r="12" fill="#f7e5dc" stroke="#a13e1b" stroke-width="2"/><text x="1160" y="631" text-anchor="middle" font-family="Aptos" font-size="10" font-weight="800" class="accent">02</text>
  <circle cx="1240" cy="626" r="12" fill="#f7e5dc" stroke="#a13e1b" stroke-width="2"/><text x="1240" y="631" text-anchor="middle" font-family="Aptos" font-size="10" font-weight="800" class="accent">03</text>
  <circle cx="1320" cy="626" r="12" fill="#f7e5dc" stroke="#a13e1b" stroke-width="2"/><text x="1320" y="631" text-anchor="middle" font-family="Aptos" font-size="10" font-weight="800" class="accent">04</text>
  <text x="1080" y="669" class="small">Preflight</text><text x="1160" y="669" class="small">Remediate</text><text x="1240" y="669" class="small">Gate</text><text x="1320" y="669" class="small">Canary</text>
  <rect x="1064" y="710" width="292" height="54" rx="8" fill="#f4e8cd" stroke="#a86e10" stroke-width="1.5"/>
  <text x="1080" y="734" class="heading">Evidence before promotion</text>
  <text x="1080" y="752" class="small">human approval remains explicit</text>
  <text x="300" y="884" class="small">PRODUCT PREVIEW / ACME SIMULATION / NOT A LIVE CUSTOMER ENVIRONMENT</text>
</svg>
